<?xml version="1.0" encoding="UTF-8"?>
<svg version="1.1" xmlns="http://www.w3.org/2000/svg" width="512" height="512">
<path d="M0 0 C42.24 0 84.48 0 128 0 C128 34.32 128 68.64 128 104 C134.6 104 141.2 104 148 104 C148.66 102.02 149.32 100.04 150 98 C150.56429304 96.71821561 151.15751654 95.44851194 151.78759766 94.19775391 C152.12779938 93.51750153 152.4680011 92.83724915 152.81851196 92.13638306 C153.36080948 91.06727188 153.36080948 91.06727188 153.9140625 89.9765625 C154.28856537 89.23038666 154.66306824 88.48421082 155.04891968 87.71542358 C156.23717966 85.35003203 157.43099382 82.9874953 158.625 80.625 C159.43526526 79.01450873 160.24516498 77.40383349 161.0546875 75.79296875 C163.03223454 71.85983766 165.01476516 67.92925592 167 64 C164.69 64 162.38 64 160 64 C159.88318188 60.45861382 159.812545 56.9177276 159.75 53.375 C159.71648437 52.37597656 159.68296875 51.37695312 159.6484375 50.34765625 C159.56951154 44.38874637 159.75448969 40.56884388 164 36 C168.80458387 31.25863434 173.78063786 31.48027272 180.1875 31.453125 C181.445625 31.46859375 182.70375 31.4840625 184 31.5 C185.258125 31.48453125 186.51625 31.4690625 187.8125 31.453125 C199.44243645 31.50240439 199.44243645 31.50240439 204 36 C208.95040182 41.32741918 208.48037405 46.50808134 208.25 53.375 C208.23195313 54.39722656 208.21390625 55.41945312 208.1953125 56.47265625 C208.14839491 58.98274749 208.08276729 61.49087764 208 64 C205.69 64 203.38 64 201 64 C201.57556641 65.14065918 202.15113281 66.28131836 202.74414062 67.45654297 C204.87268189 71.67750363 206.99597808 75.90108408 209.11767578 80.12548828 C210.03778854 81.95563839 210.9593341 83.78506886 211.88232422 85.61376953 C213.20655035 88.23804151 214.5256508 90.86483392 215.84375 93.4921875 C216.25935181 94.31306854 216.67495361 95.13394958 217.10314941 95.97970581 C217.67374084 97.12066208 217.67374084 97.12066208 218.25585938 98.28466797 C218.59339233 98.95529266 218.93092529 99.62591736 219.27868652 100.31686401 C220 102 220 102 220 104 C220.94842773 103.97905273 221.89685547 103.95810547 222.87402344 103.93652344 C226.40016425 103.8682644 229.92560099 103.81816071 233.45214844 103.78027344 C234.97700085 103.76018401 236.50177648 103.73290684 238.02636719 103.69824219 C240.22089598 103.64960204 242.41440469 103.62700604 244.609375 103.609375 C245.92905273 103.58842773 247.24873047 103.56748047 248.60839844 103.54589844 C252 104 252 104 254.46191406 105.39941406 C259.02444285 113.11370877 254.9281335 124.53292054 253.18945312 132.70068359 C252.88631836 134.16079426 252.58405628 135.62108633 252.28259277 137.08154297 C251.46463817 141.03144183 250.63438318 144.97866226 249.80172157 148.92548323 C248.92301618 153.10053979 248.05539567 157.2779001 247.18640137 161.45498657 C245.72006207 168.49563512 244.24638604 175.53471418 242.76757812 182.57275391 C240.89434701 191.48806134 239.03210635 200.40562287 237.17389679 209.32407188 C235.55293498 217.10381785 233.92761885 224.88265327 232.30121422 232.66126299 C231.95830926 234.30149985 231.61552919 235.94176283 231.27288246 237.58205366 C229.35460516 246.76464388 227.42541029 255.94472874 225.46511221 265.11845028 C224.61752549 269.08734574 223.77748443 273.05764165 222.94906616 277.03058624 C222.07192043 281.23608553 221.18000511 285.4382115 220.27815914 289.63848042 C219.93850866 291.23262748 219.60401232 292.82788248 219.27499485 294.42425799 C218.81960453 296.62938758 218.34563569 298.82974021 217.86706543 301.02993774 C217.60238213 302.28264277 217.33769882 303.53534779 217.06499481 304.82601357 C215.87938709 308.35946065 214.86914703 309.67650157 212 312 C209.53865701 312.49975401 209.53865701 312.49975401 206.72279835 312.49942875 C205.10984874 312.51382499 205.10984874 312.51382499 203.46431428 312.52851206 C202.28369265 312.51870528 201.10307102 312.50889851 199.88667297 312.49879456 C198.63187124 312.50417911 197.37706951 312.50956366 196.08424348 312.51511139 C192.59881773 312.52958184 189.11383806 312.51918044 185.6284281 312.50482833 C181.87025749 312.49372723 178.11215415 312.50570274 174.35398865 312.51501465 C167.83989158 312.52811636 161.32592279 312.52693301 154.81182289 312.51642036 C145.38371025 312.50148835 135.95574824 312.51139024 126.52764418 312.52793955 C111.2187021 312.55441392 95.90979379 312.56525907 80.60083008 312.56420898 C79.68434353 312.56415066 78.76785698 312.56409234 77.82359811 312.56403225 C74.11045754 312.56376642 70.39731699 312.56344914 66.68417643 312.56306899 C56.47312563 312.5621035 46.26207585 312.56342938 36.05102539 312.56616211 C35.13717028 312.566402 34.22331516 312.56664189 33.28176747 312.56688906 C18.03658348 312.57129784 2.79143082 312.58754139 -12.4537347 312.6113829 C-21.85571532 312.625447 -31.25757684 312.62833936 -40.65956155 312.61676001 C-47.10534162 312.60942916 -53.55106176 312.6125083 -59.99683609 312.62371845 C-63.71440258 312.62978333 -67.43180131 312.63090249 -71.14935684 312.61884117 C-75.18361586 312.60583134 -79.21749341 312.61596885 -83.25175476 312.62818909 C-84.42122278 312.62061303 -85.59069081 312.61303698 -86.79559726 312.60523134 C-94.29228331 312.65337806 -101.69989246 312.95374689 -107.4375 318.25 C-110.6143822 323.84131267 -111.36524195 329.53067832 -111.3125 335.875 C-111.30758545 336.57463867 -111.3026709 337.27427734 -111.29760742 337.99511719 C-111.14374163 344.80308679 -110.45019598 350.34562102 -105.75 355.4375 C-98.40147518 359.61279819 -91.14074148 359.28266549 -82.88484192 359.2515564 C-81.54521433 359.25369665 -80.20558792 359.25672333 -78.86596411 359.26055682 C-75.19535792 359.26857873 -71.52485395 359.26429876 -67.85424817 359.25803804 C-63.89174138 359.2534979 -59.92925386 359.26054761 -55.9667511 359.26634216 C-49.10405087 359.27496851 -42.24137642 359.27678496 -35.37867165 359.27439499 C-25.45202856 359.27129688 -15.52544247 359.28293724 -5.59881373 359.29894479 C10.51281374 359.3248971 26.62444126 359.34492219 42.73608398 359.35839844 C44.18201113 359.35961399 44.18201113 359.35961399 45.65714893 359.3608541 C59.34850201 359.37208482 73.03985101 359.37735902 86.73120806 359.38024123 C88.17849957 359.38054721 88.17849957 359.38054721 89.6550293 359.38085938 C90.61871519 359.38105931 91.58240108 359.38125925 92.57528957 359.38146524 C108.63077766 359.38519486 124.68620381 359.40425494 140.74166089 359.43595374 C150.6467329 359.45489111 160.55164626 359.4608159 170.45673142 359.45013656 C177.23840038 359.44382987 184.0199553 359.45182274 190.80159923 359.47119068 C194.71707641 359.48189957 198.63227683 359.4859789 202.54775238 359.47271919 C206.12967285 359.46071036 209.7110732 359.46695115 213.29294816 359.48791118 C215.2073745 359.49428192 217.1218348 359.48086501 219.03622025 359.46682584 C220.16848772 359.47704003 221.30075519 359.48725423 222.46733379 359.49777794 C223.4462555 359.49821267 224.42517721 359.49864741 225.43376321 359.49909532 C228.7287555 360.14224605 229.92153462 361.42119911 232 364 C232.53125 366 232.53125 366 232.5 368 C232.5103125 368.66 232.520625 369.32 232.53125 370 C231.72033321 373.05286323 230.53099577 374.09563375 228 376 C225.02261163 376.55702088 222.09799088 376.46552066 219.078125 376.390625 C218.21813904 376.38496521 217.35815308 376.37930542 216.47210693 376.37347412 C213.73083351 376.35111951 210.99087696 376.30092602 208.25 376.25 C206.38934182 376.22993376 204.52866311 376.21168321 202.66796875 376.1953125 C198.11147334 376.15125784 193.55595978 376.08223754 189 376 C189.21153214 376.53190948 189.42306427 377.06381897 189.64100647 377.61184692 C189.91553146 378.31888763 190.19005646 379.02592834 190.47290039 379.75439453 C190.74630753 380.45130402 191.01971466 381.1482135 191.30140686 381.86624146 C193.92273307 389.87272889 192.86315534 400.37739308 189.2578125 407.890625 C184.28191068 416.23530507 177.39435273 421.42449508 168 424 C156.90022728 424.99851512 147.2655134 424.34947202 138.1875 417.25 C132.11685172 411.58024358 128.35634272 404.50750397 127.69921875 396.1953125 C127.68478577 394.83861281 127.68103923 393.48176107 127.6875 392.125 C127.67138672 391.45597656 127.65527344 390.78695313 127.63867188 390.09765625 C127.63320103 384.4189233 128.83945525 381.76145267 131 376 C76.22 376 21.44 376 -35 376 C-34.01 378.64 -33.02 381.28 -32 384 C-30.78066075 395.05094854 -31.75060264 404.86245091 -38.75 413.8125 C-44.40769487 419.8702339 -51.45426092 423.59107368 -59.734375 424.3359375 C-70.46385274 424.57734743 -79.30740106 423.32551693 -87.46875 415.703125 C-93.6853006 408.78879831 -96.382911 401.41925225 -96.3125 392.125 C-96.31121094 391.42117188 -96.30992187 390.71734375 -96.30859375 389.9921875 C-96.21007811 384.67234273 -95.3635847 380.7271694 -93 376 C-93.67804688 376.04640625 -94.35609375 376.0928125 -95.0546875 376.140625 C-103.83662601 376.48119879 -110.83943262 374.76218718 -117.8125 369.25 C-123.74386304 363.71033075 -127.60722259 356.67768191 -128.29052734 348.54003906 C-128.33109531 345.16809974 -128.37136737 341.79698727 -128.37060547 338.42480469 C-128.37496087 336.26936725 -128.41128078 334.11601119 -128.44921875 331.9609375 C-128.53548274 321.44804502 -127.12617688 312.49728789 -119.71484375 304.5390625 C-115.98594208 301.19239449 -112.12323254 298 -107 298 C-113.20254511 270.65771157 -119.53814973 243.34821433 -125.984375 216.0625 C-126.16022818 215.31810417 -126.33608135 214.57370834 -126.51726341 213.80675507 C-128.70516884 204.54614035 -130.89562693 195.28613027 -133.08715773 186.02637291 C-141.93532033 148.6405885 -150.78171953 111.25430008 -159.56928253 73.85421753 C-160.23762681 71.01001148 -160.90699118 68.16604858 -161.57726288 65.32229614 C-162.49576079 61.42508869 -163.41069081 57.52705272 -164.32519531 53.62890625 C-164.59848412 52.47128784 -164.87177292 51.31366943 -165.1533432 50.12097168 C-165.3986805 49.07244019 -165.64401779 48.02390869 -165.89678955 46.94360352 C-166.21845533 45.57511009 -166.21845533 45.57511009 -166.54661942 44.17897034 C-167 42 -167 42 -167 40 C-167.65510559 40.00888245 -168.31021118 40.01776489 -168.98516846 40.0269165 C-175.79812909 40.1153505 -182.61092693 40.1757181 -189.42431641 40.21972656 C-191.96767803 40.23985272 -194.51099333 40.26715637 -197.05419922 40.30175781 C-200.70812404 40.3502297 -204.36143756 40.37295916 -208.015625 40.390625 C-209.15429016 40.41127014 -210.29295532 40.43191528 -211.46612549 40.45318604 C-212.52692322 40.45348816 -213.58772095 40.45379028 -214.68066406 40.45410156 C-215.61332092 40.46298401 -216.54597778 40.47186646 -217.50689697 40.48101807 C-220.75799901 39.85375205 -221.94368862 38.53494894 -224 36 C-224.53125 34 -224.53125 34 -224.5 32 C-224.51546875 31.01 -224.51546875 31.01 -224.53125 30 C-223.74900763 27.05508755 -222.35448296 25.904182 -220 24 C-217.11621094 23.49206543 -217.11621094 23.49206543 -213.734375 23.48242188 C-212.46625977 23.46981323 -211.19814453 23.45720459 -209.89160156 23.44421387 C-208.51106205 23.4513737 -207.13052761 23.45957769 -205.75 23.46875 C-204.33040094 23.46605438 -202.91080369 23.46217137 -201.49121094 23.45715332 C-198.51870106 23.45126142 -195.54667259 23.45981046 -192.57421875 23.47851562 C-188.76741213 23.501306 -184.96173351 23.48818112 -181.15496826 23.46422577 C-178.22436044 23.44975886 -175.29401926 23.45437765 -172.36340332 23.46473694 C-170.96000026 23.46740181 -169.55657285 23.46414283 -168.15319824 23.45481873 C-166.19067865 23.44464059 -164.22807398 23.4629096 -162.265625 23.48242188 C-161.14961914 23.48560425 -160.03361328 23.48878662 -158.88378906 23.49206543 C-155.33184569 24.11768498 -154.1849972 25.18237923 -152 28 C-150.875 31.15356445 -150.875 31.15356445 -150 34.86328125 C-149.83757812 35.53231979 -149.67515625 36.20135834 -149.5078125 36.89067078 C-148.99174758 39.02832396 -148.49530841 41.16995253 -148 43.3125 C-147.50241684 45.40609088 -147.00078365 47.49868492 -146.49902344 49.59127808 C-146.1671638 50.97751051 -145.83707627 52.36416842 -145.50878906 53.75125122 C-143.81643985 60.87325573 -141.92477789 67.93757527 -140 75 C-138.453125 73.824375 -138.453125 73.824375 -136.875 72.625 C-130.07638185 67.84429839 -124.10258453 67.74048662 -116 68 C-115.9175 66.72125 -115.835 65.4425 -115.75 64.125 C-114.49374134 53.56250947 -109.86829265 46.09911661 -102 39 C-91.71429131 31.77631972 -81.19376349 30.94226191 -69 32 C-59.92152952 33.73422064 -52.64728639 40.04132974 -47.26171875 47.36328125 C-46.10387616 49.19952174 -45.03949286 51.09426308 -44 53 C-43.57589844 52.61328125 -43.15179688 52.2265625 -42.71484375 51.828125 C-35.08497928 45.05347611 -28.58308574 41.62687079 -18.21484375 41.71484375 C-10.91229885 42.36257859 -6.13885738 44.86114262 -1 50 C-0.67 33.5 -0.34 17 0 0 Z " fill="#CFD1D3" transform="translate(240,40)"/>
<path d="M0 0 C42.24 0 84.48 0 128 0 C128 34.32 128 68.64 128 104 C85.76 104 43.52 104 0 104 C0 69.68 0 35.36 0 0 Z " fill="#D38F72" transform="translate(240,40)"/>
<path d="M0 0 C7.48210175 4.87054791 12.97769331 10.64595336 17.23828125 18.45703125 C17.66238281 18.0703125 18.08648437 17.68359375 18.5234375 17.28515625 C26.15215328 10.51152729 32.65812431 7.07535297 43.02734375 7.17578125 C51.10332392 7.88316637 55.54009381 10.75884381 61.23828125 16.45703125 C61.23828125 33.94703125 61.23828125 51.43703125 61.23828125 69.45703125 C16.68828125 69.45703125 -27.86171875 69.45703125 -73.76171875 69.45703125 C-75.08171875 64.50703125 -76.40171875 59.55703125 -77.76171875 54.45703125 C-78.17421875 52.93078125 -78.58671875 51.40453125 -79.01171875 49.83203125 C-79.69101473 46.77519935 -80.10146458 44.54871826 -79.76171875 41.45703125 C-76.16835534 37.41677746 -71.03187374 34.49039497 -65.76171875 33.45703125 C-62.08798606 33.31436202 -58.43575017 33.33935765 -54.76171875 33.45703125 C-54.67921875 32.17828125 -54.59671875 30.89953125 -54.51171875 29.58203125 C-53.25546009 19.01954072 -48.6300114 11.55614786 -40.76171875 4.45703125 C-29.53957962 -3.4243066 -12.70621237 -6.21046304 0 0 Z " fill="#35A872" transform="translate(178.76171875,74.54296875)"/>
<path d="M0 0 C36.36659892 -0.0915045 72.7331777 -0.16201275 109.09986798 -0.20426132 C113.39079759 -0.2092643 117.68172698 -0.21444157 121.97265625 -0.21972656 C122.82692283 -0.2207758 123.68118942 -0.22182505 124.56134287 -0.22290608 C138.40350895 -0.24032344 152.24560877 -0.27186843 166.0877355 -0.30861118 C180.28522648 -0.34598363 194.48268269 -0.36822801 208.68022084 -0.37635398 C217.44477229 -0.38184945 226.20913642 -0.39922211 234.97363022 -0.43166587 C240.97929267 -0.45276817 246.98485792 -0.4592098 252.99055478 -0.45400551 C256.45843522 -0.451437 259.92598776 -0.45544441 263.39381027 -0.4768219 C267.14991064 -0.49661377 270.90519821 -0.4919778 274.66131592 -0.48101807 C275.76247576 -0.49266943 276.86363561 -0.5043208 277.99816394 -0.51632524 C279.50448693 -0.50437894 279.50448693 -0.50437894 281.04124069 -0.49219131 C282.34216254 -0.49446964 282.34216254 -0.49446964 283.66936564 -0.49679399 C286.78858061 0.16809248 288.00317298 1.57333138 290 4 C290.53125 6 290.53125 6 290.5 8 C290.51546875 8.99 290.51546875 8.99 290.53125 10 C289.72033321 13.05286323 288.53099577 14.09563375 286 16 C283.02261163 16.55702088 280.09799088 16.46552066 277.078125 16.390625 C276.21813904 16.38496521 275.35815308 16.37930542 274.47210693 16.37347412 C271.73083351 16.35111951 268.99087696 16.30092602 266.25 16.25 C264.38934182 16.22993376 262.52866311 16.21168321 260.66796875 16.1953125 C256.11147334 16.15125784 251.55595978 16.08223754 247 16 C247.21153214 16.53190948 247.42306427 17.06381897 247.64100647 17.61184692 C247.91553146 18.31888763 248.19005646 19.02592834 248.47290039 19.75439453 C248.88301109 20.79975876 248.88301109 20.79975876 249.30140686 21.86624146 C251.92273307 29.87272889 250.86315534 40.37739308 247.2578125 47.890625 C242.28191068 56.23530507 235.39435273 61.42449508 226 64 C214.90022728 64.99851512 205.2655134 64.34947202 196.1875 57.25 C190.11685172 51.58024358 186.35634272 44.50750397 185.69921875 36.1953125 C185.68478577 34.83861281 185.68103923 33.48176107 185.6875 32.125 C185.67138672 31.45597656 185.65527344 30.78695313 185.63867188 30.09765625 C185.63502216 26.30925054 186.12744476 23.28321641 187.52270508 19.74560547 C187.79786453 19.03983368 188.07302399 18.33406189 188.35652161 17.60690308 C188.56886948 17.07662506 188.78121735 16.54634705 189 16 C188.13970373 16.00737434 187.27940746 16.01474869 186.39304161 16.0223465 C165.46132547 16.19901173 144.5297378 16.33140053 123.59743309 16.41449738 C113.47467655 16.45575059 103.35241762 16.51199355 93.22998047 16.60351562 C84.40733943 16.68324756 75.58505874 16.73486426 66.76206744 16.75270796 C62.09002299 16.76313902 57.41900942 16.78765453 52.74729538 16.84584045 C48.34917619 16.90017457 43.95251153 16.91688692 39.55408859 16.90486145 C37.94074597 16.90706101 36.32735435 16.92295874 34.71430206 16.9536438 C22.46861566 17.17515174 22.46861566 17.17515174 18.78683853 14.2290802 C17.18765259 12.06970215 17.18765259 12.06970215 16.04964638 9.9156723 C14.38809205 6.88322855 11.89325791 5.9760041 8.8125 4.625 C5.65991188 3.20534397 2.88328982 1.92219322 0 0 Z " fill="#7D8589" transform="translate(182,400)"/>
<path d="M0 0 C1.258125 -0.01546875 2.51625 -0.0309375 3.8125 -0.046875 C15.44243645 0.00240439 15.44243645 0.00240439 20 4.5 C24.95040182 9.82741918 24.48037405 15.00808134 24.25 21.875 C24.23195313 22.89722656 24.21390625 23.91945313 24.1953125 24.97265625 C24.14839491 27.48274749 24.08276729 29.99087764 24 32.5 C21.69 32.5 19.38 32.5 17 32.5 C17.57556641 33.64065918 18.15113281 34.78131836 18.74414062 35.95654297 C20.87268189 40.17750363 22.99597808 44.40108408 25.11767578 48.62548828 C26.03778854 50.45563839 26.9593341 52.28506886 27.88232422 54.11376953 C29.20655035 56.73804151 30.5256508 59.36483392 31.84375 61.9921875 C32.46715271 63.22350906 32.46715271 63.22350906 33.10314941 64.47970581 C33.4835437 65.24034332 33.86393799 66.00098083 34.25585938 66.78466797 C34.59339233 67.45529266 34.93092529 68.12591736 35.27868652 68.81686401 C36 70.5 36 70.5 36 72.5 C12.24 72.5 -11.52 72.5 -36 72.5 C-33.75 65.75 -33.75 65.75 -32.21240234 62.69775391 C-31.70209976 61.67737534 -31.70209976 61.67737534 -31.18148804 60.63638306 C-30.81995636 59.92364227 -30.45842468 59.21090149 -30.0859375 58.4765625 C-29.71143463 57.73038666 -29.33693176 56.98421082 -28.95108032 56.21542358 C-27.76282034 53.85003203 -26.56900618 51.4874953 -25.375 49.125 C-24.56473474 47.51450873 -23.75483502 45.90383349 -22.9453125 44.29296875 C-20.96776546 40.35983766 -18.98523484 36.42925592 -17 32.5 C-19.31 32.5 -21.62 32.5 -24 32.5 C-24.11681812 28.95861382 -24.187455 25.4177276 -24.25 21.875 C-24.28351563 20.87597656 -24.31703125 19.87695312 -24.3515625 18.84765625 C-24.43048846 12.88874637 -24.24551031 9.06884388 -20 4.5 C-14.38621483 -1.03991958 -7.39116829 -0.09087502 0 0 Z " fill="#FFD33A" transform="translate(424,71.5)"/>
<path d="M0 0 C10.56 0 21.12 0 32 0 C32 34.32 32 68.64 32 104 C21.44 104 10.88 104 0 104 C0 69.68 0 35.36 0 0 Z " fill="#C48669" transform="translate(336,40)"/>
<path d="M0 0 C4.83768053 2.70174556 8.60285137 5.35414023 11.109375 10.3671875 C11.295 11.0684375 11.480625 11.7696875 11.671875 12.4921875 C12.331875 12.4921875 12.991875 12.4921875 13.671875 12.4921875 C17.80620551 20.76084852 18.03464266 30.55606398 15.98046875 39.50390625 C12.76858896 48.27946066 7.03280151 54.388571 -1.328125 58.4921875 C-9.64367329 61.83954804 -20.42708232 61.98738757 -28.890625 58.8671875 C-37.46237501 54.75389807 -42.89456217 48.49951393 -46.4453125 39.734375 C-47.46561733 35.98723779 -47.66982185 32.47117114 -47.640625 28.6171875 C-47.63933594 27.91335938 -47.63804687 27.20953125 -47.63671875 26.484375 C-47.53820311 21.16453023 -46.6917097 17.2193569 -44.328125 12.4921875 C-43.668125 12.4921875 -43.008125 12.4921875 -42.328125 12.4921875 C-42.1425 11.7909375 -41.956875 11.0896875 -41.765625 10.3671875 C-34.15517099 -4.85372052 -13.72601815 -6.42726247 0 0 Z " fill="#7D8589" transform="translate(191.328125,403.5078125)"/>
<path d="M0 0 C69.63 0 139.26 0 211 0 C208.69528263 1.53647825 206.66906524 2.66226759 204.1875 3.8125 C199.45161306 6.16303212 195.09916447 8.68681103 192.75542164 13.61921215 C191 16 191 16 187.99266338 16.63758564 C186.74958322 16.64336722 185.50650305 16.64914881 184.22575378 16.65510559 C183.18695311 16.66998057 183.18695311 16.66998057 182.12716657 16.68515605 C179.80070023 16.71217914 177.47575677 16.70334109 175.14916992 16.69458008 C173.48359146 16.70626379 171.81802651 16.72003194 170.15248108 16.73573303 C165.62334384 16.77140935 161.09471771 16.77484333 156.56546187 16.77042222 C152.78564795 16.76923432 149.00594101 16.78266987 145.22615415 16.79580516 C136.30783885 16.82616131 127.38978488 16.82944505 118.47143555 16.81665039 C109.2705767 16.8039743 100.07076751 16.83912328 90.87010878 16.89753419 C82.97271587 16.94584342 75.07565927 16.96320889 67.17812234 16.95605963 C62.46043621 16.95217759 57.7435399 16.96031352 53.02599144 16.99866676 C48.58743712 17.03350022 44.15056059 17.02970682 39.71201134 16.99632835 C38.08422319 16.99054945 36.4563204 16.99839013 34.82867813 17.02093506 C22.47612021 17.18001328 22.47612021 17.18001328 18.77857399 14.22418785 C17.17915344 12.06474304 17.17915344 12.06474304 16.04486561 9.9128828 C14.38828787 6.88011088 11.89063948 5.97485584 8.8125 4.625 C5.65991188 3.20534397 2.88328982 1.92219322 0 0 Z " fill="#CFD1D3" transform="translate(182,400)"/>
<path d="M0 0 C20.46 0 40.92 0 62 0 C62 10.56 62 21.12 62 32 C41.54 32 21.08 32 0 32 C0 21.44 0 10.88 0 0 Z " fill="#EA423F" transform="translate(265,160)"/>
<path d="M0 0 C20.79 0 41.58 0 63 0 C61.68 10.56 60.36 21.12 59 32 C39.2 32 19.4 32 -1 32 C-1 8 -1 8 0 0 Z " fill="#EA423F" transform="translate(344,160)"/>
<path d="M0 0 C20.79 0 41.58 0 63 0 C64.32368303 10.5894642 64 21.32812627 64 32 C44.2 32 24.4 32 4 32 C2.68 21.44 1.36 10.88 0 0 Z " fill="#248256" transform="translate(185,160)"/>
<path d="M0 0 C19.8 0 39.6 0 60 0 C60 10.56 60 21.12 60 32 C41.52 32 23.04 32 4 32 C2.8214981 25.51823955 1.66585482 19.14631103 0.875 12.625 C0.78863281 11.95339844 0.70226562 11.28179687 0.61328125 10.58984375 C0.16901311 7.00043927 0 3.63513991 0 0 Z " fill="#E99F27" transform="translate(191,208)"/>
<path d="M0 0 C19.8 0 39.6 0 60 0 C61.32 10.56 62.64 21.12 64 32 C45.19 32 26.38 32 7 32 C5.845 27.276875 4.69 22.55375 3.5 17.6875 C3.13455078 16.20080811 2.76910156 14.71411621 2.39257812 13.18237305 C2.10833984 12.01230713 1.82410156 10.84224121 1.53125 9.63671875 C1.09135742 7.83787231 1.09135742 7.83787231 0.64257812 6.00268555 C0 3 0 3 0 0 Z " fill="#248256" transform="translate(109,160)"/>
<path d="M0 0 C19.14 0 38.28 0 58 0 C58 10.56 58 21.12 58 32 C38.86 32 19.72 32 0 32 C0 21.44 0 10.88 0 0 Z " fill="#EA423F" transform="translate(267,208)"/>
<path d="M0 0 C18.48 0 36.96 0 56 0 C54.86153846 14.8 54.86153846 14.8 54 21.625 C53.9175 22.30433594 53.835 22.98367188 53.75 23.68359375 C53.38233476 26.59619184 52.93139305 29.20582086 52 32 C34.84 32 17.68 32 0 32 C0 21.44 0 10.88 0 0 Z " fill="#258258" transform="translate(339,256)"/>
<path d="M0 0 C18.48 0 36.96 0 56 0 C56 10.56 56 21.12 56 32 C38.84 32 21.68 32 4 32 C2.8214981 25.51823955 1.66585482 19.14631103 0.875 12.625 C0.78863281 11.95339844 0.70226562 11.28179687 0.61328125 10.58984375 C0.16901311 7.00043927 0 3.63513991 0 0 Z " fill="#E99F27" transform="translate(197,256)"/>
<path d="M0 0 C18.15 0 36.3 0 55 0 C51 23 51 23 49 32 C31.51 32 14.02 32 -4 32 C-2.86153846 17.2 -2.86153846 17.2 -2 10.375 C-1.87625 9.35599609 -1.87625 9.35599609 -1.75 8.31640625 C-1.38233476 5.40380816 -0.93139305 2.79417914 0 0 Z " fill="#FED23A" transform="translate(423,160)"/>
<path d="M0 0 C18.15 0 36.3 0 55 0 C56.32 10.56 57.64 21.12 59 32 C42.17 32 25.34 32 8 32 C4 19 4 19 0 0 Z " fill="#248256" transform="translate(120,208)"/>
<path d="M0 0 C17.16 0 34.32 0 52 0 C50.86153846 14.8 50.86153846 14.8 50 21.625 C49.9175 22.30433594 49.835 22.98367188 49.75 23.68359375 C49.38233476 26.59619184 48.93139305 29.20582086 48 32 C32.16 32 16.32 32 0 32 C0 21.44 0 10.88 0 0 Z " fill="#268257" transform="translate(337,304)"/>
<path d="M0 0 C17.16 0 34.32 0 52 0 C52 10.56 52 21.12 52 32 C36.16 32 20.32 32 4 32 C2.8214981 25.51823955 1.66585482 19.14631103 0.875 12.625 C0.78863281 11.95339844 0.70226562 11.28179687 0.61328125 10.58984375 C0.16901311 7.00043927 0 3.63513991 0 0 Z " fill="#E99F26" transform="translate(203,304)"/>
<path d="M0 0 C16.5 0 33 0 50 0 C50 10.56 50 21.12 50 32 C33.5 32 17 32 0 32 C0 21.44 0 10.88 0 0 Z " fill="#2E85CC" transform="translate(271,304)"/>
<path d="M0 0 C15.51 0 31.02 0 47 0 C45.21585225 10.70488648 43.2739243 21.38835328 41 32 C26.15 32 11.3 32 -4 32 C-2.68 21.44 -1.36 10.88 0 0 Z " fill="#248256" transform="translate(411,256)"/>
<path d="M0 0 C1.258125 -0.01546875 2.51625 -0.0309375 3.8125 -0.046875 C15.44243645 0.00240439 15.44243645 0.00240439 20 4.5 C24 10.5 24 10.5 24 32.5 C8.16 32.5 -7.68 32.5 -24 32.5 C-24 10.5 -24 10.5 -20 4.5 C-14.38621483 -1.03991958 -7.39116829 -0.09087502 0 0 Z " fill="#E99F25" transform="translate(424,71.5)"/>
<path d="M0 0 C1.12591553 0.00523682 2.25183105 0.01047363 3.41186523 0.01586914 C4.62680664 0.0190918 5.84174805 0.02231445 7.09350586 0.02563477 C8.37290039 0.03401367 9.65229492 0.04239258 10.97045898 0.05102539 C12.2537207 0.05553711 13.53698242 0.06004883 14.85913086 0.06469727 C18.04211921 0.07652994 21.22501661 0.09301471 24.40795898 0.11352539 C23.88542982 7.34416168 23.31595134 14.54552347 22.40795898 21.73852539 C22.32545898 22.41786133 22.24295898 23.09719727 22.15795898 23.79711914 C21.79029374 26.70971723 21.33935203 29.31934625 20.40795898 32.11352539 C1.59795898 32.11352539 -17.21204102 32.11352539 -36.59204102 32.11352539 C-36.59204102 31.12352539 -36.59204102 30.13352539 -36.59204102 29.11352539 C-34.57250977 27.20336914 -34.57250977 27.20336914 -31.77954102 25.05102539 C-27.7411191 21.86062037 -23.87373428 18.61145524 -20.09204102 15.11352539 C-15.43464016 10.82522691 -10.63780466 6.8005502 -5.70922852 2.82836914 C-2.34400463 0.10266197 -2.34400463 0.10266197 0 0 Z " fill="#2E85CB" transform="translate(376.592041015625,207.886474609375)"/>
<path d="M0 0 C14.52 0 29.04 0 44 0 C45.32 10.56 46.64 21.12 48 32 C34.47 32 20.94 32 7 32 C6.030625 28.205 5.06125 24.41 4.0625 20.5 C3.75836182 19.31986328 3.45422363 18.13972656 3.14086914 16.92382812 C2.89973389 15.96927734 2.65859863 15.01472656 2.41015625 14.03125 C2.04096069 12.58588867 2.04096069 12.58588867 1.66430664 11.11132812 C0.88230933 7.44878725 0.46452168 3.71617345 0 0 Z " fill="#996046" transform="translate(143,304)"/>
<path d="M0 0 C14.19 0 28.38 0 43 0 C41.21585225 10.70488648 39.2739243 21.38835328 37 32 C23.47 32 9.94 32 -4 32 C-2.68 21.44 -1.36 10.88 0 0 Z " fill="#248256" transform="translate(405,304)"/>
<path d="M0 0 C0 10.56 0 21.12 0 32 C-15.84 32 -31.68 32 -48 32 C-44.44328297 28.44328297 -40.8998429 25.09867517 -37.0625 21.875 C-36.50618896 21.40562012 -35.94987793 20.93624023 -35.37670898 20.45263672 C-30.61476003 16.46122752 -25.75388839 12.60239978 -20.84594727 8.79248047 C-20.02694946 8.15656982 -20.02694946 8.15656982 -19.19140625 7.5078125 C-18.65273926 7.09821289 -18.11407227 6.68861328 -17.55908203 6.26660156 C-15.72249838 4.82165745 -15.72249838 4.82165745 -13.21484375 2.1796875 C-10 0 -10 0 0 0 Z " fill="#2F85CA" transform="translate(323,256)"/>
<path d="M0 0 C14.85 0 29.7 0 45 0 C40.87498487 5.50002017 36.74487186 10.79784444 32.24780273 15.9675293 C29.92284323 18.65903471 27.71467776 21.34030496 25.7109375 24.28125 C20.45783374 31.69290185 20.45783374 31.69290185 15.7734375 32.6796875 C12.76470659 32.68673371 9.9643679 32.49656924 7 32 C6.74605469 30.97261719 6.49210938 29.94523437 6.23046875 28.88671875 C5.88301857 27.486928 5.53534694 26.08719221 5.1875 24.6875 C5.00735352 23.96071045 4.82720703 23.2339209 4.64160156 22.48510742 C3.37329749 17.40122841 2.00326319 12.35676663 0.515625 7.33203125 C0 5 0 5 0 0 Z " fill="#258256" transform="translate(132,256)"/>
<path d="M0 0 C8.91 0 17.82 0 27 0 C27.66 3.980625 28.32 7.96125 29 12.0625 C29.20882812 13.30394775 29.41765625 14.54539551 29.6328125 15.82446289 C29.87644531 17.3209436 29.87644531 17.3209436 30.125 18.84765625 C30.29257813 19.85836182 30.46015625 20.86906738 30.6328125 21.91040039 C31 25 31 25 31 32 C22.09 32 13.18 32 4 32 C2.8214981 25.51823955 1.66585482 19.14631103 0.875 12.625 C0.78863281 11.95339844 0.70226562 11.28179687 0.61328125 10.58984375 C0.16901311 7.00043927 0 3.63513991 0 0 Z " fill="#268256" transform="translate(191,208)"/>
<path d="M0 0 C9.24 0 18.48 0 28 0 C27.46194464 10.68424213 26.8780174 21.33836019 26 32 C17.42 32 8.84 32 0 32 C0 21.44 0 10.88 0 0 Z " fill="#2E85CB" transform="translate(339,256)"/>
<path d="M0 0 C3.54756499 0.88689125 5.0981562 1.53447866 7.984375 3.51953125 C8.7472583 4.04168213 9.5101416 4.56383301 10.29614258 5.10180664 C11.510802 5.94859985 11.510802 5.94859985 12.75 6.8125 C13.58748779 7.39056396 14.42497559 7.96862793 15.2878418 8.56420898 C21.5484525 12.91486304 27.68880445 17.4124837 33.74707031 22.0402832 C34.35260742 22.50265381 34.95814453 22.96502441 35.58203125 23.44140625 C36.43788818 24.09520264 36.43788818 24.09520264 37.31103516 24.76220703 C38.98384979 25.98816398 40.69810115 27.10459117 42.44921875 28.21484375 C43.29097656 28.80394531 44.13273437 29.39304688 45 30 C45 30.66 45 31.32 45 32 C28.83 32 12.66 32 -4 32 C-2.68 21.44 -1.36 10.88 0 0 Z " fill="#268256" transform="translate(417,208)"/>
<path d="M0 0 C8.01465346 -0.09271207 16.02908259 -0.16377038 24.04413986 -0.20724869 C27.76594748 -0.22811704 31.48738802 -0.25641981 35.20898438 -0.30175781 C38.8010951 -0.34524413 42.39285295 -0.36914277 45.9852066 -0.37950897 C47.35517177 -0.3868955 48.72511777 -0.40132001 50.09493256 -0.42292023 C52.01459389 -0.4519848 53.9346109 -0.45363416 55.85449219 -0.45410156 C56.94703308 -0.46298401 58.03957397 -0.47186646 59.16522217 -0.48101807 C62.6696031 0.11362132 63.8314071 1.24292777 66 4 C66.53125 6 66.53125 6 66.5 8 C66.51546875 8.99 66.51546875 8.99 66.53125 10 C65.71908118 13.05757675 64.53430886 14.08622878 62 16 C58.95906117 16.64568213 55.95252798 16.65577517 52.8515625 16.671875 C51.51634048 16.6918454 51.51634048 16.6918454 50.15414429 16.71221924 C48.27309418 16.73244625 46.39190093 16.74185407 44.51074219 16.74121094 C41.640158 16.74995383 38.77574399 16.82256146 35.90625 16.8984375 C34.0755418 16.91017628 32.24480447 16.91811344 30.4140625 16.921875 C29.56075348 16.95061707 28.70744446 16.97935913 27.82827759 17.00897217 C24.1375034 16.95272286 21.90162298 16.88361289 19.19187927 14.22799683 C17.60571289 12.06884766 17.60571289 12.06884766 16.2848053 9.91519165 C14.35322267 7.03588306 11.9341846 5.99395167 8.8125 4.625 C5.65991188 3.20534397 2.88328982 1.92219322 0 0 Z " fill="#CFD1D3" transform="translate(406,400)"/>
<path d="M0 0 C14.52 0 29.04 0 44 0 C40.44328297 3.55671703 36.8998429 6.90132483 33.0625 10.125 C32.50618896 10.59437988 31.94987793 11.06375977 31.37670898 11.54736328 C26.61476003 15.53877248 21.75388839 19.39760022 16.84594727 23.20751953 C16.29994873 23.63145996 15.7539502 24.05540039 15.19140625 24.4921875 C14.65789551 24.90178711 14.12438477 25.31138672 13.57470703 25.73339844 C11.97394631 26.98903768 11.97394631 26.98903768 10.46826172 28.43066406 C6.49616601 32.10217572 5.93029358 32 0 32 C0 21.44 0 10.88 0 0 Z " fill="#E89F28" transform="translate(269,256)"/>
<path d="M0 0 C8.58 0 17.16 0 26 0 C25.34 10.56 24.68 21.12 24 32 C16.08 32 8.16 32 0 32 C0 21.44 0 10.88 0 0 Z " fill="#2E85CB" transform="translate(337,304)"/>
<path d="M0 0 C15.84 0 31.68 0 48 0 C44.51785714 20.89285714 44.51785714 20.89285714 42 30 C36.56361128 27.03210275 31.61008936 23.66837673 26.625 20 C25.04755522 18.8480263 23.46941116 17.69700964 21.890625 16.546875 C20.68696289 15.66999023 20.68696289 15.66999023 19.45898438 14.77539062 C14.72453717 11.35711222 9.9310652 8.02116683 5.13134766 4.6953125 C3.40372329 3.48774885 1.6990708 2.24741907 0 1 C0 0.67 0 0.34 0 0 Z " fill="#FDD23A" transform="translate(420,208)"/>
<path d="M0 0 C0.80232056 -0.00004028 1.60464111 -0.00008057 2.43127441 -0.00012207 C4.12239443 0.00522359 5.8135146 0.02276578 7.50439453 0.05175781 C10.08573724 0.09362006 12.66446867 0.09282315 15.24609375 0.0859375 C16.89324721 0.09643096 18.54038728 0.10936992 20.1875 0.125 C21.3392572 0.12530212 21.3392572 0.12530212 22.51428223 0.12561035 C27.00556641 0.22428421 30.08499362 0.69725983 33.59375 3.59375 C34.76555914 7.54860583 34.9985633 9.66267942 33.34375 13.46875 C31.59375 15.59375 31.59375 15.59375 28.59375 16.59375 C25.83664043 16.71468389 23.10557638 16.78187326 20.34765625 16.796875 C19.13637306 16.80542511 19.13637306 16.80542511 17.90061951 16.81414795 C16.19344388 16.82358834 14.48625011 16.83012812 12.77905273 16.83398438 C10.16943625 16.8437009 7.56060393 16.8747369 4.95117188 16.90625 C3.29167134 16.91277933 1.63216518 16.91803007 -0.02734375 16.921875 C-0.80661728 16.9342218 -1.58589081 16.9465686 -2.38877869 16.95928955 C-5.67506266 16.9457938 -7.99136563 16.82910765 -10.88085938 15.18994141 C-12.65730202 13.33104544 -13.11884837 12.25184068 -13.46875 9.71875 C-13.58347656 9.06132813 -13.69820313 8.40390625 -13.81640625 7.7265625 C-12.44387172 0.58938296 -6.11332719 -0.13053482 0 0 Z " fill="#996046" transform="translate(277.40625,63.40625)"/>
<path d="M0 0 C5.28 0 10.56 0 16 0 C17.42847077 4.07369255 18.85406049 8.14816417 20.27246094 12.2253418 C20.75581792 13.61199243 21.24083311 14.99806621 21.72753906 16.38354492 C22.42689953 18.37529498 23.12026718 20.36904455 23.8125 22.36328125 C24.23144531 23.56251221 24.65039062 24.76174316 25.08203125 25.99731445 C26 29 26 29 26 32 C17.42 32 8.84 32 0 32 C0 21.44 0 10.88 0 0 Z " fill="#E99E27" transform="translate(267,208)"/>
<path d="M0 0 C7.59 0 15.18 0 23 0 C21.68 10.56 20.36 21.12 19 32 C12.73 32 6.46 32 0 32 C0 21.44 0 10.88 0 0 Z " fill="#FED33A" transform="translate(384,160)"/>
<path d="M0 0 C6.93 0 13.86 0 21 0 C21 10.56 21 21.12 21 32 C15.39 32 9.78 32 4 32 C2.74789155 25.56058513 1.69946169 19.13091549 0.875 12.625 C0.78750488 11.94759766 0.70000977 11.27019531 0.60986328 10.57226562 C0.16858169 6.98873945 0 3.62901147 0 0 Z " fill="#996147" transform="translate(203,304)"/>
<path d="M0 0 C1.32 10.56 2.64 21.12 4 32 C-7.22 32 -18.44 32 -30 32 C-26.31493973 27.0865863 -22.68136032 22.32196115 -18.6875 17.6875 C-15.87181255 14.4106682 -13.07735871 11.1337727 -10.4296875 7.71875 C-9.64851563 6.7184375 -8.86734375 5.718125 -8.0625 4.6875 C-7.02802734 3.33205078 -7.02802734 3.33205078 -5.97265625 1.94921875 C-4 0 -4 0 0 0 Z " fill="#E89E26" transform="translate(181,256)"/>
<path d="M0 0 C10.89 0 21.78 0 33 0 C24.80503751 8.19496249 16.32807408 15.89504802 7.27734375 23.125 C5.02840874 24.90294474 5.02840874 24.90294474 3.31640625 26.75 C2 28 2 28 0 28 C0 18.76 0 9.52 0 0 Z " fill="#E84442" transform="translate(341,208)"/>
<path d="M0 0 C4.62 0 9.24 0 14 0 C13.3776805 3.64630889 12.75222471 7.29203441 12.125 10.9375 C11.95097656 11.95908203 11.77695312 12.98066406 11.59765625 14.03320312 C10.55678712 20.06638901 9.38078685 26.0352496 8 32 C5.36 32 2.72 32 0 32 C0 21.44 0 10.88 0 0 Z " fill="#E99F27" transform="translate(464,160)"/>
<path d="M0 0 C2.0625 1.5625 2.0625 1.5625 3 4 C3.17821261 6.85140177 2.92914963 9.292848 2 12 C-0.93837168 14.85194898 -2.53597436 15 -6.625 15 C-10 14 -10 14 -12 11.875 C-13.30782688 8.11499772 -13.06090617 5.81926223 -12 2 C-8.81688665 -2.07438508 -4.54417813 -1.38635943 0 0 Z " fill="#43484B" transform="translate(405,425)"/>
<path d="M0 0 C2.0625 1.5625 2.0625 1.5625 3 4 C3.17821261 6.85140177 2.92914963 9.292848 2 12 C-0.93837168 14.85194898 -2.53597436 15 -6.625 15 C-10 14 -10 14 -12 11.875 C-13.30782688 8.11499772 -13.06090617 5.81926223 -12 2 C-8.81688665 -2.07438508 -4.54417813 -1.38635943 0 0 Z " fill="#43484B" transform="translate(181,425)"/>
<path d="M0 0 C1.32 0 2.64 0 4 0 C3.01 5.94 2.02 11.88 1 18 C0.67 18 0.34 18 0 18 C0 12.06 0 6.12 0 0 Z " fill="#E8A12E" transform="translate(464,208)"/>
</svg>
